<!-- Generated by graphviz version 14.1.0 (20251206.1807)
 -->
<!-- Title: diagram Pages: 1 -->
<svg role="img" aria-labelledby="senior-junior-waterfall-rules-title senior-junior-waterfall-rules-description" focusable="false" width="568pt" height="354pt"
 viewBox="0.00 0.00 568.00 354.00" xmlns="http://www.w3.org/2000/svg" xmlns:xlink="http://www.w3.org/1999/xlink">
<title id="senior-junior-waterfall-rules-title">Senior–Junior waterfall rules</title>
<desc id="senior-junior-waterfall-rules-description">Losses reach Junior before Senior, new revenue restores impaired Senior before reaching Junior, and the Senior coupon is funded from Junior NAV.</desc>
<style>text { font-family: "Uncut Sans", Inter, ui-sans-serif, system-ui, -apple-system, BlinkMacSystemFont, "Segoe UI", sans-serif; }</style>
<g id="graph0" class="graph" transform="scale(1 1) rotate(0) translate(27.36 326.7)">
<title>diagram</title>
<polygon fill="#250917" stroke="none" points="-27.36,27.36 -27.36,-326.7 540.16,-326.7 540.16,27.36 -27.36,27.36"/>
<text xml:space="preserve" text-anchor="middle" x="146.75" y="-274.44" font-family="Arial" font-size="22.00" fill="#fff5f9">Senior–Junior waterfall rules</text>
<!-- lossJunior -->
<g id="node1" class="node">
<title>lossJunior</title>
<g id="a_node1"><a xlink:title="Junior absorbs losses first">
<polygon fill="#471b20" stroke="#ff572d" stroke-width="1.6" points="202.8,-265.84 0,-265.84 0,-214 202.8,-214 202.8,-265.84"/>
<text xml:space="preserve" text-anchor="middle" x="101.4" y="-234.67" font-family="Arial" font-size="15.00" fill="#fff5f9">Junior absorbs losses first</text>
</a>
</g>
</g>
<!-- lossSenior -->
<g id="node2" class="node">
<title>lossSenior</title>
<g id="a_node2"><a xlink:title="Senior absorbs the remainder">
<polygon fill="#471b20" stroke="#ff572d" stroke-width="1.6" points="512.8,-265.84 286,-265.84 286,-214 512.8,-214 512.8,-265.84"/>
<text xml:space="preserve" text-anchor="middle" x="399.4" y="-234.67" font-family="Arial" font-size="15.00" fill="#fff5f9">Senior absorbs the remainder</text>
</a>
</g>
</g>
<!-- lossJunior&#45;&gt;lossSenior -->
<g id="edge1" class="edge">
<title>lossJunior&#45;&gt;lossSenior</title>
<g id="a_edge1"><a xlink:title="LOSSES">
<path fill="none" stroke="#ff572d" stroke-width="1.6" d="M203.54,-239.92C226.82,-239.92 251.79,-239.92 275.86,-239.92"/>
<polygon fill="#ff572d" stroke="#ff572d" stroke-width="1.6" points="275.76,-242.44 282.96,-239.92 275.76,-237.4 275.76,-242.44"/>
</a>
</g>
<text xml:space="preserve" text-anchor="middle" x="244.4" y="-245.77" font-family="Arial" font-size="12.00" fill="#ff572d">LOSSES</text>
</g>
<!-- revenueSenior -->
<g id="node3" class="node">
<title>revenueSenior</title>
<g id="a_node3"><a xlink:title="Restore impaired Senior">
<polygon fill="#403515" stroke="#f7d977" stroke-width="1.6" points="196.43,-158.84 6.38,-158.84 6.38,-107 196.43,-107 196.43,-158.84"/>
<text xml:space="preserve" text-anchor="middle" x="101.4" y="-127.67" font-family="Arial" font-size="15.00" fill="#fff5f9">Restore impaired Senior</text>
</a>
</g>
</g>
<!-- lossJunior&#45;&gt;revenueSenior -->
<!-- revenueJunior -->
<g id="node4" class="node">
<title>revenueJunior</title>
<g id="a_node4"><a xlink:title="Junior receives residual revenue">
<polygon fill="#12372c" stroke="#00ff99" stroke-width="1.6" points="508.17,-161 322.62,-161 322.62,-104.84 508.17,-104.84 508.17,-161"/>
<text xml:space="preserve" text-anchor="middle" x="415.4" y="-136.67" font-family="Arial" font-size="15.00" fill="#fff5f9">Junior receives residual</text>
<text xml:space="preserve" text-anchor="middle" x="415.4" y="-118.67" font-family="Arial" font-size="15.00" fill="#fff5f9">revenue</text>
</a>
</g>
</g>
<!-- revenueSenior&#45;&gt;revenueJunior -->
<g id="edge2" class="edge">
<title>revenueSenior&#45;&gt;revenueJunior</title>
<g id="a_edge2"><a xlink:title="NEW REVENUE">
<path fill="none" stroke="#00ff99" stroke-width="1.6" d="M196.89,-132.92C233.48,-132.92 275.37,-132.92 312.62,-132.92"/>
<polygon fill="#00ff99" stroke="#00ff99" stroke-width="1.6" points="312.36,-135.44 319.56,-132.92 312.36,-130.4 312.36,-135.44"/>
</a>
</g>
<text xml:space="preserve" text-anchor="middle" x="259.52" y="-138.77" font-family="Arial" font-size="12.00" fill="#00ff99">NEW REVENUE</text>
</g>
<!-- couponJunior -->
<g id="node5" class="node">
<title>couponJunior</title>
<g id="a_node5"><a xlink:title="Junior NAV funds coupon">
<polygon fill="#403515" stroke="#f7d977" stroke-width="1.6" points="200.18,-51.84 2.62,-51.84 2.62,0 200.18,0 200.18,-51.84"/>
<text xml:space="preserve" text-anchor="middle" x="101.4" y="-20.67" font-family="Arial" font-size="15.00" fill="#fff5f9">Junior NAV funds coupon</text>
</a>
</g>
</g>
<!-- revenueSenior&#45;&gt;couponJunior -->
<!-- couponSenior -->
<g id="node6" class="node">
<title>couponSenior</title>
<g id="a_node6"><a xlink:title="Senior receives coupon">
<polygon fill="#12372c" stroke="#00ff99" stroke-width="1.6" points="472.8,-51.84 288,-51.84 288,0 472.8,0 472.8,-51.84"/>
<text xml:space="preserve" text-anchor="middle" x="380.4" y="-20.67" font-family="Arial" font-size="15.00" fill="#fff5f9">Senior receives coupon</text>
</a>
</g>
</g>
<!-- couponJunior&#45;&gt;couponSenior -->
<g id="edge3" class="edge">
<title>couponJunior&#45;&gt;couponSenior</title>
<g id="a_edge3"><a xlink:title="COUPON">
<path fill="none" stroke="#f7d977" stroke-width="1.6" d="M200.94,-25.92C225.92,-25.92 252.77,-25.92 277.89,-25.92"/>
<polygon fill="#f7d977" stroke="#f7d977" stroke-width="1.6" points="277.8,-28.44 285,-25.92 277.8,-23.4 277.8,-28.44"/>
</a>
</g>
<text xml:space="preserve" text-anchor="middle" x="244.09" y="-31.77" font-family="Arial" font-size="12.00" fill="#f7d977">COUPON</text>
</g>
</g>
</svg>
